<?xml version="1.0" standalone="no"?>
<!DOCTYPE svg PUBLIC "-//W3C//DTD SVG 20010904//EN"
 "http://www.w3.org/TR/2001/REC-SVG-20010904/DTD/svg10.dtd">
<svg version="1.0" xmlns="http://www.w3.org/2000/svg"
 width="1024.000000pt" height="1024.000000pt" viewBox="0 0 1024.000000 1024.000000"
 preserveAspectRatio="xMidYMid meet">
<metadata>
Created by potrace 1.16, written by Peter Selinger 2001-2019
</metadata>
<g transform="translate(0.000000,1024.000000) scale(0.100000,-0.100000)"
   fill="#ffffff"
   fill-rule="evenodd"
   clip-rule="evenodd"
   stroke="none">
<path d="M4428 9133 l-3 -148 -165 -2 -165 -2 -3 -145 -3 -146 -159 0 -160 0
0 -455 0 -455 -150 0 -150 0 0 -905 0 -905 -145 0 -145 0 0 300 0 300 -150 0
-150 0 0 305 0 305 -161 0 -161 0 4 300 5 300 -149 0 -148 0 0 150 0 149 -156
3 -155 3 1 303 1 302 -156 0 -155 0 0 -910 0 -910 -152 0 -153 0 0 -760 0
-760 153 0 152 0 0 -310 0 -310 155 0 155 0 0 -150 0 -150 305 0 305 0 0 -155
0 -155 155 0 155 0 0 155 0 155 150 0 150 0 0 150 0 150 145 0 145 0 0 -150 0
-150 -140 0 -140 0 0 -305 0 -305 -155 0 -155 0 0 -455 0 -455 303 0 304 0 -1
150 -1 150 148 0 147 0 0 305 0 305 155 0 155 0 0 -455 0 -455 -155 0 -155 0
0 -305 0 -305 -150 0 -150 0 0 -755 0 -755 305 0 305 0 0 295 0 295 185 0 185
0 0 310 0 310 160 0 160 0 0 145 0 145 153 0 152 0 -2 145 -2 145 130 0 129 0
0 -290 0 -290 155 0 155 0 0 -605 0 -605 578 0 577 0 1 150 1 150 -151 0 -151
0 0 142 0 143 -152 3 -153 3 0 309 0 310 153 0 152 0 3 688 c1 378 0 717 -4
755 l-7 67 -148 0 -149 0 0 305 0 305 155 0 155 0 0 -305 0 -305 155 0 156 0
-3 -300 -3 -300 148 0 147 0 0 140 0 140 145 0 145 0 0 315 0 315 -145 0 -145
0 0 305 0 305 -145 0 -145 0 0 150 0 150 200 0 200 0 0 -150 0 -150 148 0 147
0 0 -147 0 -148 158 -3 157 -3 0 156 0 155 308 0 307 0 -3 150 -3 150 155 0
156 0 0 305 0 305 148 0 147 0 0 760 0 760 -147 0 -148 0 0 910 0 910 -155 0
-155 0 0 -305 0 -305 -160 0 -160 0 0 -150 0 -150 -150 0 -150 0 0 -300 0
-300 -155 0 -156 0 3 -305 3 -305 -147 0 -148 0 0 -300 0 -300 -55 0 -55 0 0
1055 0 1055 -145 0 -145 0 0 305 0 305 -155 0 -155 0 0 145 0 145 -142 2 c-79
1 -151 2 -160 1 -16 0 -18 14 -18 149 l0 148 -880 0 -879 0 -3 -147z m1472
-1198 l0 -145 150 0 150 0 0 -155 0 -155 -150 0 -150 0 0 -150 0 -150 150 0
149 0 3 146 3 146 143 2 142 1 0 -452 0 -453 -145 0 -145 0 0 -150 0 -150
-150 0 -150 0 0 -150 0 -150 -560 0 -560 0 0 150 0 150 -155 0 -155 0 2 601 3
601 430 2 430 1 3 158 3 157 129 0 130 0 0 145 0 145 150 0 150 0 0 -145z m2
-3040 l3 -155 -147 0 -148 0 0 155 0 155 145 0 144 0 3 -155z m-572 -5 l0
-150 -120 0 -120 0 0 150 0 150 120 0 120 0 0 -150z m-960 -765 l0 -305 -140
0 -140 0 0 305 0 305 140 0 140 0 0 -305z"/>
<path d="M4780 7020 l0 -150 150 0 150 0 0 150 0 150 -150 0 -150 0 0 -150z"/>
<path d="M5600 7020 l0 -150 155 0 155 0 0 113 c0 61 -3 129 -6 150 l-7 37
-148 0 -149 0 0 -150z"/>
</g>
</svg>
